# xmcd
#
# Track frame offsets: 
#        150
#        10947
#        27501
#        56439
#        65397
#        80982
#        103144
#        119091
#        141625
#        146844
#
# Disc length: 2182 seconds
#
# Revision: 0
# Processed by: cddbd v1.5.2PL0 Copyright (c) Steve Scherf et al.
# Submitted via: ExactAudioCopy v0.99pb5
#
DISCID=9e08840a
DTITLE=Alex Ross - The Twilight Years of Venkat
DYEAR=2010
DGENRE=Blues
TTITLE0=Pigeons and Sparrows
TTITLE1=Come On Now
TTITLE2=Pandora
TTITLE3=The Twilight Years Of Venkat
TTITLE4=Bring It On
TTITLE5=Dolphin Song
TTITLE6=Grace Is Not A Number
TTITLE7=You Are The Camel, I Am The Needle
TTITLE8=Bingo Flipping
TTITLE9=Ok Samantha You Win
EXTD=
EXTT0=
EXTT1=
EXTT2=
EXTT3=
EXTT4=
EXTT5=
EXTT6=
EXTT7=
EXTT8=
EXTT9=
PLAYORDER=
